#N canvas -163 38 1512 831 12;
#X obj 40 45 r AirTemp_Avg;
#X obj 198 316 r RH;
#X obj 728 43 r PAR_Tot_Tot;
#X obj 87 455 r WS_ms_Avg;
#X obj 672 405 r NR_Wm2_Avg;
#X obj 705 436 r NR_Wm2_Max;
#X obj 739 464 r NR_Wm2_Min;
#X obj 366 47 r CO2_ppm_Avg;
#X obj 1134 103 r CO2_ppm_Max;
#N canvas 345 148 1136 725 Pitch_Background 0;
#X obj 48 48 inlet;
#X obj 181 48 inlet;
#X floatatom 126 284 5 0 0 0 - - - 0;
#X obj 47 82 s \$0-AirTemp_Avg;
#X obj 38 147 r \$0-AirTemp_Avg;
#X obj 126 312 * 7;
#X obj 126 341 int;
#X floatatom 126 370 4 0 0 0 - - - 0;
#N canvas 788 197 450 278 (subpatch) 0;
#X array scaleNC 8 float 3;
#A 0 60 62 64 65 67 69 71 72;
#X coords 0 60 8 72 200 140 1 0 0;
#X restore 155 530 graph;
#X obj 35 509 loadbang;
#X msg 35 541 \; scaleNC 0 60 \; scaleNC 1 62 \; scaleNC 2 64 \; scaleNC 3 65 \; scaleNC 4 67 \; scaleNC 5 69 \; scaleNC 6 71 \; scaleNC 7 72 \;;
#X obj 126 398 tabread scaleNC, f 8;
#X obj 126 211 moses 25, f 19;
#X floatatom 126 440 5 0 0 0 - - - 0;
#X obj 126 466 s PitchRoot;
#N canvas 788 197 450 278 (subpatch) 0;
#X array scaleLC 8 float 3;
#A 0 48 50 52 53 55 57 59 60;
#X coords 0 48 8 60 200 140 1 0 0;
#X restore 529 526 graph;
#X obj 409 505 loadbang;
#X msg 409 537 \; scaleLC 0 48 \; scaleLC 1 50 \; scaleLC 2 52 \; scaleLC 3 53 \; scaleLC 4 55 \; scaleLC 5 57 \; scaleLC 6 59 \; scaleLC 7 60 \;;
#N canvas 788 197 450 278 (subpatch) 0;
#X array scaleHC 8 float 3;
#A 0 72 74 76 77 79 81 83 84;
#X coords 0 72 8 84 200 140 1 0 0;
#X restore 903 526 graph;
#X obj 783 505 loadbang;
#X msg 783 537 \; scaleHC 0 72 \; scaleHC 1 74 \; scaleHC 2 76 \; scaleHC 3 77 \; scaleHC 4 79 \; scaleHC 5 81 \; scaleHC 6 83 \; scaleHC 7 84 \;;
#X obj 38 178 moses 15, f 13;
#X obj 126 241 expr ($f1-15)/(25-15), f 16;
#X floatatom 38 250 5 0 0 0 - - - 0;
#X obj 38 278 * 7;
#X obj 38 307 int;
#X floatatom 38 336 4 0 0 0 - - - 0;
#X floatatom 38 407 5 0 0 0 - - - 0;
#X obj 38 438 s PitchRoot;
#X obj 38 207 expr $f1/15, f 7;
#X floatatom 256 287 5 0 0 0 - - - 0;
#X obj 256 315 * 7;
#X obj 256 344 int;
#X floatatom 256 373 4 0 0 0 - - - 0;
#X floatatom 256 443 5 0 0 0 - - - 0;
#X obj 256 469 s PitchRoot;
#X obj 38 364 tabread scaleLC, f 8;
#X obj 256 401 tabread scaleHC, f 8;
#X obj 181 86 s \$0-CO2_ppm_Avg;
#X obj 256 244 expr ($f1-25)/(40-25), f 16;
#X obj 446 123 r \$0-CO2_ppm_Avg;
#X floatatom 428 207 5 0 0 0 - - - 0;
#X obj 446 149 expr if($f1 < 450 \, 0 \, if($f1 < 500 \, 1 \, if($f1 < 550 \, 2 \, 3)));
#X obj 448 371 + 0;
#X obj 481 370 + 4;
#X obj 515 370 + 7;
#X obj 677 372 + 9;
#X obj 430 398 f;
#X obj 463 400 f;
#X obj 497 399 f;
#X obj 659 402 f;
#X obj 428 233 sel 0 1 2 3, f 89;
#X obj 574 374 + 0;
#X obj 607 373 + 4;
#X obj 641 373 + 7;
#X obj 556 401 f;
#X obj 589 403 f;
#X obj 623 402 f;
#X obj 556 432 pack f f f f, f 15;
#X obj 819 403 f;
#X obj 734 375 + 0;
#X obj 716 402 f;
#X obj 749 404 f;
#X obj 783 403 f;
#X obj 716 433 pack f f f f, f 15;
#X obj 801 374 + 6;
#X obj 912 376 + 0;
#X obj 894 403 f;
#X obj 927 405 f;
#X obj 961 404 f;
#X obj 431 465 outlet;
#X obj 556 464 outlet;
#X obj 717 464 outlet;
#X obj 894 464 outlet;
#X obj 430 429 pack f f f 0;
#X obj 894 434 pack f f f f;
#X obj 995 404 f;
#X obj 767 374 + 3;
#X obj 837 373 + 8;
#X obj 945 375 + 2;
#X obj 980 375 + 6;
#X obj 425 64 t b f;
#X obj 425 40 r PitchRoot;
#X obj 428 177 f;
#X obj 1013 375 + 11;
#X connect 0 0 3 0;
#X connect 1 0 38 0;
#X connect 2 0 5 0;
#X connect 4 0 21 0;
#X connect 5 0 6 0;
#X connect 6 0 7 0;
#X connect 7 0 11 0;
#X connect 9 0 10 0;
#X connect 11 0 13 0;
#X connect 12 0 22 0;
#X connect 12 1 39 0;
#X connect 13 0 14 0;
#X connect 16 0 17 0;
#X connect 19 0 20 0;
#X connect 21 0 29 0;
#X connect 21 1 12 0;
#X connect 22 0 2 0;
#X connect 23 0 24 0;
#X connect 24 0 25 0;
#X connect 25 0 26 0;
#X connect 26 0 36 0;
#X connect 27 0 28 0;
#X connect 29 0 23 0;
#X connect 30 0 31 0;
#X connect 31 0 32 0;
#X connect 32 0 33 0;
#X connect 33 0 37 0;
#X connect 34 0 35 0;
#X connect 36 0 27 0;
#X connect 37 0 34 0;
#X connect 39 0 30 0;
#X connect 40 0 42 0;
#X connect 41 0 51 0;
#X connect 42 0 83 1;
#X connect 43 0 47 1;
#X connect 44 0 48 1;
#X connect 45 0 49 1;
#X connect 46 0 50 1;
#X connect 47 0 74 0;
#X connect 48 0 74 1;
#X connect 49 0 74 2;
#X connect 50 0 58 3;
#X connect 51 0 47 0;
#X connect 51 0 48 0;
#X connect 51 0 49 0;
#X connect 51 1 55 0;
#X connect 51 1 56 0;
#X connect 51 1 57 0;
#X connect 51 1 50 0;
#X connect 51 2 61 0;
#X connect 51 2 62 0;
#X connect 51 2 63 0;
#X connect 51 2 59 0;
#X connect 51 3 67 0;
#X connect 51 3 68 0;
#X connect 51 3 69 0;
#X connect 51 3 76 0;
#X connect 52 0 55 1;
#X connect 53 0 56 1;
#X connect 54 0 57 1;
#X connect 55 0 58 0;
#X connect 56 0 58 1;
#X connect 57 0 58 2;
#X connect 58 0 71 0;
#X connect 59 0 64 3;
#X connect 60 0 61 1;
#X connect 61 0 64 0;
#X connect 62 0 64 1;
#X connect 63 0 64 2;
#X connect 64 0 72 0;
#X connect 65 0 63 1;
#X connect 66 0 67 1;
#X connect 67 0 75 0;
#X connect 68 0 75 1;
#X connect 69 0 75 2;
#X connect 74 0 70 0;
#X connect 75 0 73 0;
#X connect 76 0 75 3;
#X connect 77 0 62 1;
#X connect 78 0 59 1;
#X connect 79 0 68 1;
#X connect 80 0 69 1;
#X connect 81 0 83 0;
#X connect 81 1 43 0;
#X connect 81 1 44 0;
#X connect 81 1 45 0;
#X connect 81 1 52 0;
#X connect 81 1 53 0;
#X connect 81 1 54 0;
#X connect 81 1 46 0;
#X connect 81 1 60 0;
#X connect 81 1 77 0;
#X connect 81 1 65 0;
#X connect 81 1 78 0;
#X connect 81 1 66 0;
#X connect 81 1 79 0;
#X connect 81 1 80 0;
#X connect 81 1 84 0;
#X connect 82 0 81 0;
#X connect 83 0 41 0;
#X connect 84 0 76 1;
#X restore 40 76 pd Pitch_Background;
#X f 47;
#N canvas 185 107 942 714 Pitch_Key 0;
#X obj 1160 747 s CO2Array_ppm_Max_Avg;
#X obj 1170 757 s CO2Array_ppm_Max_Avg;
#X obj 22 12 inlet;
#X obj 154 12 inlet;
#N canvas 788 197 450 278 (subpatch) 0;
#X array KscaleC 8 float 3;
#A 0 60 62 64 65 67 69 71 72;
#X coords 0 60 8 72 200 140 1 0 0;
#X restore 670 25 graph;
#N canvas 788 197 450 278 (subpatch) 0;
#X array KscalePhrygian 8 float 2;
#X coords 0 60 8 72 200 140 1 0 0;
#X restore 671 194 graph;
#N canvas 788 197 450 278 (subpatch) 0;
#X array KscaleAeolian 8 float 2;
#X coords 0 60 8 72 200 140 1 0 0;
#X restore 683 359 graph;
#X obj 499 20 loadbang;
#X msg 502 53 \; KscaleC 0 60 \; KscaleC 1 62 \; KscaleC 2 64 \; KscaleC 3 65 \; KscaleC 4 67 \; KscaleC 5 69 \; KscaleC 6 71 \; KscaleC 7 72 \;;
#X msg 500 200 \; KscalePhrygian 0 60 \; KscalePhrygian 1 61 \; KscalePhrygian 2 63 \; KscalePhrygian 3 65 \; KscalePhrygian 4 67 \; KscalePhrygian 5 68 \; KscalePhrygian 6 70 \; KscalePhrygian 7 72 \;;
#X msg 507 368 \; KscaleAeolian 0 60 \; KscaleAeolian 1 62 \; KscaleAeolian 2 63 \; KscaleAeolian 3 65 \; KscaleAeolian 4 67 \; KscaleAeolian 5 68 \; KscaleAeolian 6 70 \; KscaleAeolian 7 72 \;;
#X floatatom 28 322 5 0 0 0 - - - 0;
#X obj 22 39 s Key_CO2_ppm_Max;
#X obj 154 39 s Key_CO2_ppm_Min;
#X obj 26 72 r Key_CO2_ppm_Max;
#X obj 157 72 r Key_CO2_ppm_Min;
#X floatatom 57 117 5 0 0 0 - - - 0;
#X floatatom 168 99 5 0 0 0 - - - 0;
#X obj 29 291 expr $f1 - $f2;
#X obj 29 262 pack f f;
#X obj 82 234 f;
#X obj 28 214 t f b;
#X obj 27 139 delay 10;
#X obj 27 162 bng 19 250 50 0 empty empty empty 0 -10 0 12 #fcfcfc #000000 #000000;
#X obj 27 115 bng 19 250 50 0 empty empty empty 0 -10 0 12 #fcfcfc #000000 #000000;
#X obj 28 184 f;
#X obj 310 12 inlet;
#X obj 310 39 s Key_CO2Array_MaxAvg;
#X obj 166 275 r Key_CO2Array_MaxAvg;
#X floatatom 167 301 5 0 0 0 - - - 0;
#X obj 65 482 tabread KscaleC, f 16;
#X msg 167 421 set KscaleAeolian;
#X msg 289 446 set KscalePhrygian;
#X msg 227 389 set KscaleC;
#X obj 36 767 outlet;
#X obj 167 326 moses 500;
#X obj 66 406 random 8;
#X obj 66 380 bng 19 250 50 0 empty empty empty 0 -10 0 12 #fcfcfc #000000 #000000;
#X obj 34 352 t f b;
#X floatatom 66 430 5 0 0 0 - - - 0;
#X obj 40 654 - 12;
#X obj 40 624 f;
#X floatatom 65 506 5 0 0 0 - - - 0;
#X obj 64 531 s OriginalKey;
#X obj 168 530 r OriginalKey;
#X obj 39 588 bng 19 250 50 0 empty empty empty 0 -10 0 12 #fcfcfc #000000 #000000;
#X floatatom 40 678 5 0 0 0 - - - 0;
#X obj 99 656 f;
#X obj 98 620 bng 19 250 50 0 empty empty empty 0 -10 0 12 #fcfcfc #000000 #000000;
#X floatatom 99 680 5 0 0 0 - - - 0;
#X obj 144 681 f;
#X obj 143 654 bng 19 250 50 0 empty empty empty 0 -10 0 12 #fcfcfc #000000 #000000;
#X floatatom 144 731 5 0 0 0 - - - 0;
#X obj 144 707 + 12;
#X obj 193 680 f;
#X obj 193 657 bng 19 250 50 0 empty empty empty 0 -10 0 12 #fcfcfc #000000 #000000;
#X floatatom 194 729 5 0 0 0 - - - 0;
#X obj 98 592 moses 10;
#X obj 144 620 moses 15;
#X obj 39 564 moses 3;
#X obj 194 706 + 18;
#X obj 227 357 moses 600;
#X connect 2 0 12 0;
#X connect 3 0 13 0;
#X connect 7 0 8 0;
#X connect 7 0 9 0;
#X connect 7 0 10 0;
#X connect 11 0 38 0;
#X connect 14 0 16 0;
#X connect 14 0 25 1;
#X connect 14 0 24 0;
#X connect 15 0 17 0;
#X connect 15 0 20 1;
#X connect 18 0 11 0;
#X connect 19 0 18 0;
#X connect 20 0 19 1;
#X connect 21 0 19 0;
#X connect 21 1 20 0;
#X connect 22 0 23 0;
#X connect 23 0 25 0;
#X connect 24 0 22 0;
#X connect 25 0 21 0;
#X connect 26 0 27 0;
#X connect 28 0 29 0;
#X connect 29 0 35 0;
#X connect 30 0 42 0;
#X connect 31 0 30 0;
#X connect 32 0 30 0;
#X connect 33 0 30 0;
#X connect 35 0 31 0;
#X connect 35 1 61 0;
#X connect 36 0 39 0;
#X connect 37 0 36 0;
#X connect 38 0 59 0;
#X connect 38 1 37 0;
#X connect 39 0 30 0;
#X connect 40 0 46 0;
#X connect 41 0 40 0;
#X connect 42 0 43 0;
#X connect 44 0 41 1;
#X connect 44 0 47 1;
#X connect 44 0 50 1;
#X connect 44 0 54 1;
#X connect 45 0 41 0;
#X connect 46 0 34 0;
#X connect 47 0 49 0;
#X connect 48 0 47 0;
#X connect 49 0 34 0;
#X connect 50 0 53 0;
#X connect 51 0 50 0;
#X connect 52 0 34 0;
#X connect 53 0 52 0;
#X connect 54 0 60 0;
#X connect 55 0 54 0;
#X connect 56 0 34 0;
#X connect 57 0 48 0;
#X connect 57 1 58 0;
#X connect 58 0 51 0;
#X connect 58 1 55 0;
#X connect 59 0 45 0;
#X connect 59 1 57 0;
#X connect 60 0 56 0;
#X connect 61 0 33 0;
#X connect 61 1 32 0;
#X restore 625 352 pd Pitch_Key;
#X floatatom 625 379 5 0 127 0 - - - 0;
#X obj 40 103 unpack f f f f, f 46;
#X floatatom 39 135 5 0 0 0 - - - 0;
#X floatatom 147 135 5 0 0 0 - - - 0;
#X floatatom 253 135 5 0 0 0 - - - 0;
#X floatatom 359 135 5 0 0 0 - - - 0;
#X obj 1346 150 bng 19 250 50 0 empty empty empty 0 -10 0 12 #fcfcfc #000000 #000000;
#X obj 1346 39 r Toggle;
#X obj 1346 96 tgl 19 0 empty empty empty 0 -10 0 12 #fcfcfc #000000 #000000 0 1;
#X obj 1347 178 counter 0 59;
#X obj 1441 123 bng 19 250 50 0 empty empty empty 0 -10 0 12 #fcfcfc #000000 #000000;
#X obj 1441 95 sel 0 1;
#N canvas 527 565 450 278 (subpatch) 0;
#X array CO2Array_ppm_Max 60 float 3;
#A 0 463.3 457.5 457.5 459.4 462.5 463.3 461.8 461.3 463 462.1 460.5 458.4 458.8 457.7 457.5 458.5 458.1 463.3 521.3 522.9 517.5 510.2 510.3 511.1 511.5 511.5 509.5 509.7 510.2 509.3 510.1 509.8 507.7 511.8 509.2 507.2 502.7 503.8 505.7 508.7 507 504.7 500.6 501.4 497.7 501.2 503.7 497.5 501.2 501.8 504.8 509.6 511.1 517.3 518.2 521.9 522.1 519.5 517.2 510.2;
#X coords 0 400 60 600 200 140 1 0 0;
#X restore 1523 19 graph;
#X obj 1346 123 metro 60000;
#X obj 234 288 r AirTemp_Avg;
#X obj 270 316 r CO2_ppm_Avg;
#X obj 307 260 r CO2_ppm_Max;
#X obj 1134 135 tabwrite CO2Array_ppm_Max;
#X obj 1133 162 r CO2_ppm_Min;
#X obj 1133 194 tabwrite CO2Array_ppm_Min;
#N canvas 527 565 450 278 (subpatch) 0;
#X array CO2Array_ppm_Min 60 float 3;
#A 0 457.7 456.1 453.8 454.8 457.4 458.9 458.3 458.6 460.2 459.9 457.7 455.1 457 456.1 452.3 455.9 454.4 457.7 514.9 515.4 508.3 505.7 506.7 506.7 507.9 507.9 505.6 505.9 506.2 505.7 505.6 504.3 506.4 507.6 506.1 503.4 497.8 499.3 500 499.6 502.3 502.4 496 494.9 494.7 495.9 496.9 493.2 497.8 497.6 497.8 502.4 507.1 511.1 516.9 518.1 517.8 515.4 511.6 505.8;
#X coords 0 400 60 600 200 140 1 0 0;
#X restore 1524 189 graph;
#X obj 1401 204 bng 19 250 50 0 empty empty empty 0 -10 0 12 #fcfcfc #000000 #000000;
#X obj 1374 204 bng 19 250 50 0 empty empty empty 0 -10 0 12 #fcfcfc #000000 #000000;
#X obj 624 276 tabread CO2Array_ppm_Max;
#X floatatom 624 308 5 0 127 0 - - - 0;
#X obj 625 243 random 60;
#X floatatom 705 238 5 0 127 0 - - - 0;
#X floatatom 819 306 5 0 127 0 - - - 0;
#X obj 819 275 tabread CO2Array_ppm_Min;
#X obj 578 108 r Toggle;
#X obj 1332 319 metro 300000;
#X obj 1333 557 t f b;
#X obj 1411 650 s a;
#X obj 1443 590 f;
#X obj 1461 564 r a;
#X floatatom 1335 650 8 0 0 0 - - - 0;
#X msg 1493 565 0;
#X msg 1332 403 60;
#X obj 1332 370 t b b;
#X obj 1333 522 tabread CO2Array_ppm_Max;
#X floatatom 1383 557 5 0 0 0 - - - 0;
#X obj 1332 344 bng 19 250 50 0 empty empty empty 0 -10 0 12 #fcfcfc #000000 #000000;
#X obj 1332 431 until;
#X obj 1332 469 f;
#X obj 1370 462 + 1;
#X obj 1425 458 sel 0;
#X floatatom 1335 701 5 0 0 0 - - - 0;
#X obj 1370 488 mod 60;
#X obj 1335 621 expr ($f1 + $f2);
#X obj 1335 676 / 60;
#X obj 1335 728 s CO2Array_ppm_Max_Avg;
#X obj 1332 265 r Toggle;
#X obj 1332 291 tgl 19 0 empty empty empty 0 -10 0 12 #fcfcfc #000000 #000000 0 1;
#X obj 1130 558 t f b;
#X obj 1240 591 f;
#X floatatom 1132 651 8 0 0 0 - - - 0;
#X msg 1290 566 0;
#X floatatom 1180 558 5 0 0 0 - - - 0;
#X floatatom 1132 702 5 0 0 0 - - - 0;
#X obj 1132 622 expr ($f1 + $f2);
#X obj 1132 677 / 60;
#X obj 1132 729 s CO2Array_ppm_Min_Avg;
#X obj 1130 523 tabread CO2Array_ppm_Min;
#X obj 1208 651 s b;
#X obj 1258 565 r b;
#X obj 721 351 r CO2Array_ppm_Max_Avg;
#X obj 33 775 loadbang;
#X obj 103 776 array define wave;
#X msg 33 806 \; wave sinesum 512 1 1 1 1 \, normalize \;;
#X obj 39 157 mtof;
#X obj 147 157 mtof;
#X obj 253 157 mtof;
#X obj 359 157 mtof;
#X obj 664 583 r RH;
#X obj 700 554 r AirTemp_Avg;
#X obj 736 583 r CO2_ppm_Avg;
#X obj 773 527 r CO2_ppm_Max;
#X obj 613 690 +~;
#X obj 41 409 +~;
#X obj 145 406 +~;
#X obj 627 556 osc~;
#X floatatom 584 404 5 0 0 0 - - - 0;
#X obj 625 405 mtof;
#X obj 625 444 sig~;
#X obj 626 522 +~, f 7;
#N canvas 90 103 1155 725 vibrate 0;
#X obj 36 18 inlet;
#X obj 69 158 moses 0, f 10;
#X obj 55 555 outlet~;
#X obj 119 312 osc~ 5;
#X obj 119 337 *~;
#X obj 211 339 * 15;
#X obj 138 258 * 5;
#X obj 36 45 s NRVibrate_Wm2_Avg;
#X obj 69 100 r NRVibrate_Wm2_Avg;
#X obj 186 18 inlet;
#X obj 186 45 s NRVibrate_Wm2_Max;
#X obj 337 45 s NRVibrate_Wm2_Min;
#X obj 337 18 inlet;
#X obj 373 85 r NRVibrate_Wm2_Max;
#X obj 423 118 r NRVibrate_Wm2_Min;
#X obj 373 178 -, f 5;
#X obj 405 149 f;
#X obj 373 121 t f b;
#X floatatom 373 207 5 0 0 0 - - - 0;
#X obj 731 227 r FforVibrate;
#X obj 279 395 * 30;
#X obj 375 312 s FforVibrate;
#X floatatom 69 129 5 0 0 0 - - - 0;
#X obj 373 233 * 10;
#X msg 374 260 \$1 100;
#X obj 374 284 line;
#X floatatom 478 313 5 0 0 0 - - - 0;
#X obj 592 171 expr if($f1<0 \, 1 \, 0);
#X obj 592 136 t f f f f, f 53;
#X obj 855 251 r FforVibrate;
#X obj 979 279 r FforVibrate;
#X obj 713 253 *;
#X obj 713 277 s T1;
#X obj 837 278 *;
#X obj 837 302 s T2;
#X obj 961 303 *;
#X obj 961 327 s T3;
#X obj 611 203 r FforVibrate;
#X obj 593 229 *;
#X obj 593 253 s T0;
#X obj 592 82 r NRVibrate_Wm2_Avg;
#X floatatom 592 111 5 0 0 0 - - - 0;
#X obj 119 284 r T1;
#X obj 193 395 osc~ 5;
#X obj 193 420 *~;
#X obj 193 367 r T2;
#X obj 262 447 osc~ 5;
#X obj 262 472 *~;
#X obj 262 419 r T3;
#X obj 50 244 osc~ 5;
#X obj 50 269 *~;
#X obj 69 190 * 0;
#X obj 50 216 r T0;
#X obj 55 508 expr~ $v1+$v2+$v3+$v4, f 30;
#X obj 137 197 moses 30, f 11;
#X obj 137 222 expr $f1/30;
#X obj 714 204 expr if($f1>=0 && $f1<30 \, 1 \, 0);
#X obj 214 286 moses 80, f 10;
#X obj 211 312 expr ($f1-30)/50;
#X obj 279 344 moses 150;
#X obj 279 369 expr ($f1-80)/70;
#X obj 836 228 expr if($f1>=30 && $f1<80 \, 1 \, 0);
#X obj 960 256 expr if($f1>=80 \, 1 \, 0);
#X connect 0 0 7 0;
#X connect 1 0 51 0;
#X connect 1 1 54 0;
#X connect 3 0 4 0;
#X connect 4 0 53 1;
#X connect 5 0 44 1;
#X connect 6 0 4 1;
#X connect 8 0 22 0;
#X connect 9 0 10 0;
#X connect 12 0 11 0;
#X connect 13 0 17 0;
#X connect 14 0 16 1;
#X connect 15 0 18 0;
#X connect 16 0 15 1;
#X connect 17 0 15 0;
#X connect 17 1 16 0;
#X connect 18 0 23 0;
#X connect 19 0 31 1;
#X connect 20 0 47 1;
#X connect 22 0 1 0;
#X connect 23 0 24 0;
#X connect 24 0 25 0;
#X connect 25 0 21 0;
#X connect 25 0 26 0;
#X connect 27 0 38 0;
#X connect 28 0 27 0;
#X connect 28 1 56 0;
#X connect 28 2 61 0;
#X connect 28 3 62 0;
#X connect 29 0 33 1;
#X connect 30 0 35 1;
#X connect 31 0 32 0;
#X connect 33 0 34 0;
#X connect 35 0 36 0;
#X connect 37 0 38 1;
#X connect 38 0 39 0;
#X connect 40 0 41 0;
#X connect 41 0 28 0;
#X connect 42 0 3 0;
#X connect 43 0 44 0;
#X connect 44 0 53 2;
#X connect 45 0 43 0;
#X connect 46 0 47 0;
#X connect 47 0 53 3;
#X connect 48 0 46 0;
#X connect 49 0 50 0;
#X connect 50 0 53 0;
#X connect 51 0 50 1;
#X connect 52 0 49 0;
#X connect 53 0 2 0;
#X connect 54 0 55 0;
#X connect 54 1 57 0;
#X connect 55 0 6 0;
#X connect 56 0 31 0;
#X connect 57 0 58 0;
#X connect 57 1 59 0;
#X connect 58 0 5 0;
#X connect 59 0 60 0;
#X connect 60 0 20 0;
#X connect 61 0 33 0;
#X connect 62 0 35 0;
#X restore 672 490 pd vibrate;
#N canvas 97 213 953 507 Reverb_Background 0;
#X obj 189 13 inlet;
#X obj 319 13 inlet;
#X obj 452 13 inlet;
#X obj 189 39 expr ($f1-30)/70;
#X obj 452 39 expr ($f1-400)/200;
#X obj 592 11 inlet;
#X obj 592 37 expr ($f1-400)/200;
#X obj 319 38 / 40;
#X obj 320 64 s Rev_AirTemp_Avg;
#X obj 189 64 s Rev_RH;
#X obj 452 64 s Rev_CO2_ppm_Avg;
#X obj 592 64 s Rev_CO2_ppm_Max;
#X obj 734 10 inlet;
#X obj 734 40 expr ($f1-400)/200;
#X obj 734 67 s Rev_CO2_ppm_Min;
#X obj 67 377 inlet~;
#X obj 67 451 outlet~;
#X obj 159 451 outlet~;
#X obj 46 213 * 100;
#X obj 288 372 r crossover;
#X obj 493 262 s crossover;
#X floatatom 581 219 5 0 0 0 - - - 0;
#X floatatom 195 162 5 0 0 0 - - - 0;
#X floatatom 322 162 5 0 0 0 - - - 0;
#X floatatom 63 162 5 0 0 0 - - - 0;
#X obj 176 135 r Rev_AirTemp_Avg;
#X obj 44 135 r Rev_RH;
#X obj 308 135 r Rev_CO2_ppm_Avg;
#X obj 493 135 r Rev_CO2_ppm_Max;
#X floatatom 94 213 5 0 0 0 - - - 0;
#X obj 344 396 r damping;
#X obj 233 396 r liveness;
#X obj 46 287 s liveness;
#X obj 177 372 r level;
#X obj 666 163 expr -12 + $f1*12;
#X obj 68 419 rev3~ 90 80 3000 20, f 40;
#X obj 666 283 s level;
#X floatatom 666 186 5 0 0 0 - - - 0;
#X obj 666 209 + 100;
#X obj 493 310 r Rev_RH;
#X obj 755 308 r Rev_CO2_ppm_Avg;
#X floatatom 493 370 5 0 0 0 - - - 0;
#X obj 493 396 * 100;
#X obj 493 420 clip 1 100;
#X obj 494 498 s damping;
#X floatatom 576 421 5 0 0 0 - - - 0;
#X floatatom 726 231 5 0 0 0 - - - 0;
#X obj 666 133 r Rev_CO2_ppm_Min;
#X msg 46 237 \$1 100;
#X obj 46 261 line;
#X msg 493 216 \$1 100;
#X obj 493 240 line;
#X msg 666 233 \$1 100;
#X obj 666 257 line;
#X msg 493 447 \$1 100;
#X obj 493 471 line;
#X obj 46 183 expr 0.7*$f1 + 0.2*$f2 + 0.1*$f3, f 38;
#X obj 493 337 expr 0.7*(1-$f1) + 0.3*$f2, f 38;
#X obj 493 164 * 1000;
#X obj 493 191 expr 1800 - $f1;
#X connect 0 0 3 0;
#X connect 1 0 7 0;
#X connect 2 0 4 0;
#X connect 3 0 9 0;
#X connect 4 0 10 0;
#X connect 5 0 6 0;
#X connect 6 0 11 0;
#X connect 7 0 8 0;
#X connect 12 0 13 0;
#X connect 13 0 14 0;
#X connect 15 0 35 0;
#X connect 15 0 35 1;
#X connect 18 0 48 0;
#X connect 19 0 35 4;
#X connect 25 0 22 0;
#X connect 25 0 56 1;
#X connect 26 0 24 0;
#X connect 26 0 56 0;
#X connect 27 0 23 0;
#X connect 27 0 56 2;
#X connect 28 0 58 0;
#X connect 30 0 35 5;
#X connect 31 0 35 3;
#X connect 33 0 35 2;
#X connect 34 0 37 0;
#X connect 35 0 16 0;
#X connect 35 1 17 0;
#X connect 37 0 38 0;
#X connect 38 0 46 0;
#X connect 38 0 52 0;
#X connect 39 0 57 0;
#X connect 40 0 57 1;
#X connect 41 0 42 0;
#X connect 42 0 43 0;
#X connect 43 0 45 0;
#X connect 43 0 54 0;
#X connect 47 0 34 0;
#X connect 48 0 49 0;
#X connect 49 0 32 0;
#X connect 50 0 51 0;
#X connect 51 0 20 0;
#X connect 52 0 53 0;
#X connect 53 0 36 0;
#X connect 54 0 55 0;
#X connect 55 0 44 0;
#X connect 56 0 18 0;
#X connect 56 0 29 0;
#X connect 57 0 41 0;
#X connect 58 0 59 0;
#X connect 59 0 21 0;
#X connect 59 0 50 0;
#X restore 163 345 pd Reverb_Background;
#X f 26;
#N canvas 528 222 953 507 Reverb_Key 0;
#X obj 174 23 inlet;
#X obj 67 377 inlet~;
#X obj 67 451 outlet~;
#X obj 304 23 inlet;
#X obj 437 23 inlet;
#X obj 159 451 outlet~;
#X obj 46 213 * 100;
#X obj 437 49 expr ($f1-400)/200;
#X obj 288 372 r crossover;
#X obj 493 262 s crossover;
#X obj 577 21 inlet;
#X obj 577 47 expr ($f1-400)/200;
#X floatatom 581 219 5 0 0 0 - - - 0;
#X floatatom 195 162 5 0 0 0 - - - 0;
#X floatatom 322 162 5 0 0 0 - - - 0;
#X floatatom 63 162 5 0 0 0 - - - 0;
#X obj 304 48 / 40;
#X obj 305 74 s Rev_AirTemp_Avg;
#X obj 176 135 r Rev_AirTemp_Avg;
#X obj 174 74 s Rev_RH;
#X obj 44 135 r Rev_RH;
#X obj 437 74 s Rev_CO2_ppm_Avg;
#X obj 308 135 r Rev_CO2_ppm_Avg;
#X obj 577 74 s Rev_CO2_ppm_Max;
#X obj 493 135 r Rev_CO2_ppm_Max;
#X floatatom 94 213 5 0 0 0 - - - 0;
#X obj 344 396 r damping;
#X obj 233 396 r liveness;
#X obj 46 287 s liveness;
#X obj 177 372 r level;
#X obj 666 163 expr -12 + $f1*12;
#X obj 68 419 rev3~ 90 80 3000 20, f 40;
#X obj 666 283 s level;
#X floatatom 666 186 5 0 0 0 - - - 0;
#X obj 666 209 + 100;
#X obj 493 310 r Rev_RH;
#X obj 755 308 r Rev_CO2_ppm_Avg;
#X floatatom 493 370 5 0 0 0 - - - 0;
#X obj 493 396 * 100;
#X obj 493 420 clip 1 100;
#X obj 494 498 s damping;
#X floatatom 576 421 5 0 0 0 - - - 0;
#X floatatom 726 231 5 0 0 0 - - - 0;
#X obj 174 49 expr ($f1-20)/80;
#X obj 715 15 inlet;
#X obj 715 45 expr ($f1-400)/200;
#X obj 715 72 s Rev_CO2_ppm_Min;
#X obj 666 133 r Rev_CO2_ppm_Min;
#X msg 46 237 \$1 100;
#X obj 46 261 line;
#X msg 493 216 \$1 100;
#X obj 493 240 line;
#X msg 666 233 \$1 100;
#X obj 666 257 line;
#X msg 493 447 \$1 100;
#X obj 493 471 line;
#X obj 46 183 expr 0.7*$f1 + 0.1*$f2 + 0.2*$f3, f 38;
#X obj 493 337 expr 0.7*(1-$f1) + 0.3*$f2, f 38;
#X obj 493 165 * 700;
#X obj 493 191 expr 1500 - $f1;
#X connect 0 0 43 0;
#X connect 1 0 31 0;
#X connect 1 0 31 1;
#X connect 3 0 16 0;
#X connect 4 0 7 0;
#X connect 6 0 48 0;
#X connect 7 0 21 0;
#X connect 8 0 31 4;
#X connect 10 0 11 0;
#X connect 11 0 23 0;
#X connect 16 0 17 0;
#X connect 18 0 13 0;
#X connect 18 0 56 1;
#X connect 20 0 15 0;
#X connect 20 0 56 0;
#X connect 22 0 14 0;
#X connect 22 0 56 2;
#X connect 24 0 58 0;
#X connect 26 0 31 5;
#X connect 27 0 31 3;
#X connect 29 0 31 2;
#X connect 30 0 33 0;
#X connect 31 0 2 0;
#X connect 31 1 5 0;
#X connect 33 0 34 0;
#X connect 34 0 42 0;
#X connect 34 0 52 0;
#X connect 35 0 57 0;
#X connect 36 0 57 1;
#X connect 37 0 38 0;
#X connect 38 0 39 0;
#X connect 39 0 41 0;
#X connect 39 0 54 0;
#X connect 43 0 19 0;
#X connect 44 0 45 0;
#X connect 45 0 46 0;
#X connect 47 0 30 0;
#X connect 48 0 49 0;
#X connect 49 0 28 0;
#X connect 50 0 51 0;
#X connect 51 0 9 0;
#X connect 52 0 53 0;
#X connect 53 0 32 0;
#X connect 54 0 55 0;
#X connect 55 0 40 0;
#X connect 56 0 6 0;
#X connect 56 0 25 0;
#X connect 57 0 37 0;
#X connect 58 0 59 0;
#X connect 59 0 12 0;
#X connect 59 0 50 0;
#X restore 629 612 pd Reverb_Key;
#X f 26;
#X floatatom 765 406 5 0 0 0 - - - 0;
#X obj 39 219 tabosc4~ wave;
#X obj 147 219 tabosc4~ wave;
#X obj 253 219 tabosc4~ wave;
#X obj 359 219 tabosc4~ wave;
#X obj 39 180 sig~ 100;
#X obj 147 180 sig~ 100;
#X obj 253 180 sig~ 100;
#X obj 359 180 sig~ 100;
#X obj 619 44 r PAR_Den_Avg;
#X obj 620 186 metro 1 120 permin, f 19;
#X obj 578 134 tgl 19 0 empty empty empty 17 7 0 10 #dfdfdf #000000 #000000 0 1;
#X msg 620 158 tempo \$1 permin;
#X floatatom 620 132 5 0 0 0 - - - 0;
#X floatatom 750 160 5 0 0 0 - - - 0;
#X obj 625 214 bng 19 250 50 0 empty empty empty 17 7 0 10 #dfdfdf #000000 #000000;
#N canvas 360 331 680 443 melody 0;
#X obj 40 30 inlet;
#X obj 201 30 inlet;
#X obj 37 348 outlet;
#X obj 153 348 outlet;
#X obj 40 83 s MelodyPAR_Den_Avg;
#X obj 201 83 s MelodyPAR_Tot_Tot;
#X obj 44 128 r MelodyPAR_Den_Avg;
#X obj 40 54 / 700;
#X floatatom 44 177 5 0 0 0 - - - 0;
#X obj 44 200 int;
#X floatatom 44 224 5 0 0 0 - - - 0;
#X obj 44 248 s BPM;
#X obj 304 119 r MelodyPAR_Tot_Tot;
#X msg 304 174 0;
#X msg 364 200 1;
#X obj 364 174 moses 3;
#X obj 304 148 moses 0.1;
#X obj 410 202 moses 13;
#X msg 410 228 2;
#X msg 463 228 3;
#X obj 37 319 r BPM;
#X obj 305 369 s NoteType;
#X obj 153 319 r NoteType;
#X obj 44 153 expr 85+pow($f1 \, 0.5)*(180-85);
#X msg 305 312 0.5;
#X msg 341 312 1;
#X obj 305 345 expr 1/$f1;
#X msg 413 312 2;
#X msg 377 312 1.5;
#X obj 305 279 sel 0 1 2 3, f 21;
#X connect 0 0 7 0;
#X connect 1 0 5 0;
#X connect 6 0 23 0;
#X connect 7 0 4 0;
#X connect 8 0 9 0;
#X connect 9 0 10 0;
#X connect 10 0 11 0;
#X connect 12 0 16 0;
#X connect 13 0 29 0;
#X connect 14 0 29 0;
#X connect 15 0 14 0;
#X connect 15 1 17 0;
#X connect 16 0 13 0;
#X connect 16 1 15 0;
#X connect 17 0 18 0;
#X connect 17 1 19 0;
#X connect 18 0 29 0;
#X connect 19 0 29 0;
#X connect 20 0 2 0;
#X connect 22 0 3 0;
#X connect 23 0 8 0;
#X connect 24 0 26 0;
#X connect 25 0 26 0;
#X connect 26 0 21 0;
#X connect 27 0 26 0;
#X connect 28 0 26 0;
#X connect 29 0 24 0;
#X connect 29 1 25 0;
#X connect 29 2 28 0;
#X connect 29 3 27 0;
#X restore 619 71 pd melody;
#X f 16;
#X obj 720 691 +~;
#X obj 808 554 r CO2_ppm_Min;
#X obj 347 286 r CO2_ppm_Min;
#X obj 63 432 r WS_ms_Max;
#X obj 192 456 r WS_ms_Avg;
#X obj 169 434 r WS_ms_Max;
#N canvas 410 444 535 300 EQ_L 0;
#X obj 150 22 inlet;
#X obj 159 98 r EQWS_ms_Max;
#X obj 150 51 s EQWS_ms_Max;
#X obj 61 263 vcf~, f 29;
#X obj 60 22 inlet~;
#X obj 61 286 outlet~;
#X floatatom 157 177 5 0 0 0 - - - 0;
#X obj 299 22 inlet;
#X obj 299 49 s EQWS_ms_Avg;
#X obj 257 152 r EQWS_ms_Avg;
#X obj 156 227 line~;
#X obj 256 233 line;
#X msg 256 208 \$1 100;
#X msg 157 201 \$1 100;
#X obj 159 122 expr 500/$f1;
#X obj 159 146 clip 0 10000;
#X obj 256 181 clip 0 10000;
#X connect 0 0 2 0;
#X connect 1 0 14 0;
#X connect 3 0 5 0;
#X connect 4 0 3 0;
#X connect 6 0 13 0;
#X connect 7 0 8 0;
#X connect 9 0 16 0;
#X connect 10 0 3 1;
#X connect 11 0 3 2;
#X connect 12 0 11 0;
#X connect 13 0 10 0;
#X connect 14 0 15 0;
#X connect 15 0 6 0;
#X connect 16 0 12 0;
#X restore 41 478 pd EQ_L;
#N canvas 764 436 511 300 EQ_R 0;
#X obj 116 24 inlet;
#X obj 125 100 r EQWS_ms_Max;
#X obj 116 53 s EQWS_ms_Max;
#X obj 27 265 vcf~, f 29;
#X obj 26 24 inlet~;
#X obj 27 288 outlet~;
#X floatatom 123 179 5 0 0 0 - - - 0;
#X obj 265 24 inlet;
#X obj 265 51 s EQWS_ms_Avg;
#X obj 223 154 r EQWS_ms_Avg;
#X obj 122 229 line~;
#X obj 222 235 line;
#X msg 222 210 \$1 100;
#X msg 123 203 \$1 100;
#X obj 125 124 expr 500/$f1;
#X obj 125 148 clip 0 10000;
#X obj 222 183 clip 0 10000;
#X connect 0 0 2 0;
#X connect 1 0 14 0;
#X connect 3 0 5 0;
#X connect 4 0 3 0;
#X connect 6 0 13 0;
#X connect 7 0 8 0;
#X connect 9 0 16 0;
#X connect 10 0 3 1;
#X connect 11 0 3 2;
#X connect 12 0 11 0;
#X connect 13 0 10 0;
#X connect 14 0 15 0;
#X connect 15 0 6 0;
#X connect 16 0 12 0;
#X restore 146 479 pd EQ_R;
#X obj 41 597 dac~, f 16;
#X obj 172 516 hsl 162 19 0.01 1 1 1 empty empty empty -2 -10 0 12 #fcfcfc #000000 #000000 7000 1;
#X obj 41 567 *~;
#X obj 150 568 *~;
#X obj 613 762 dac~, f 16;
#X obj 774 680 hsl 162 19 0.01 1 1 1 empty empty empty -2 -10 0 12 #fcfcfc #000000 #000000 11100 1;
#X obj 613 732 *~;
#X obj 722 733 *~;
#X obj 808 640 *~ 0.5;
#X obj 635 661 *~ 0.5;
#X obj 573 612 *~ 0.4;
#X obj 357 488 t b f;
#X obj 347 516 * 1;
#X obj 357 397 r Toggle;
#X obj 169 542 line~ 10;
#X obj 954 653 t b f;
#X obj 944 681 * 1;
#X obj 952 560 r Toggle;
#X obj 771 708 line~ 10;
#X obj 952 585 tgl 19 0 empty empty empty 0 -10 0 12 #fcfcfc #000000 #000000 0 1;
#X obj 357 421 tgl 19 0 empty empty empty 0 -10 0 12 #fcfcfc #000000 #000000 0 1;
#X obj 315 486 bng 19 250 50 0 empty empty empty 0 -10 0 12 #fcfcfc #000000 #000000;
#X obj 914 654 bng 19 250 50 0 empty empty empty 0 -10 0 12 #fcfcfc #000000 #000000;
#X obj 952 609 sel 0 1;
#X msg 954 628 0;
#X obj 357 445 sel 0 1;
#X msg 357 466 0;
#X obj 40 340 *~ 0.3;
#X connect 0 0 9 0;
#X connect 1 0 97 1;
#X connect 2 0 115 1;
#X connect 3 0 122 2;
#X connect 4 0 99 0;
#X connect 4 0 96 0;
#X connect 5 0 96 1;
#X connect 6 0 96 2;
#X connect 7 0 9 1;
#X connect 8 0 28 0;
#X connect 9 0 12 0;
#X connect 9 1 12 0;
#X connect 9 2 12 0;
#X connect 9 3 12 0;
#X connect 10 0 11 0;
#X connect 11 0 93 0;
#X connect 12 0 13 0;
#X connect 12 1 14 0;
#X connect 12 2 15 0;
#X connect 12 3 16 0;
#X connect 13 0 80 0;
#X connect 14 0 81 0;
#X connect 15 0 82 0;
#X connect 16 0 83 0;
#X connect 17 0 20 0;
#X connect 18 0 19 0;
#X connect 18 0 22 0;
#X connect 19 0 24 0;
#X connect 20 0 28 1;
#X connect 20 0 30 1;
#X connect 20 1 33 0;
#X connect 20 2 32 0;
#X connect 21 0 20 2;
#X connect 22 0 21 0;
#X connect 24 0 17 0;
#X connect 25 0 97 2;
#X connect 26 0 97 3;
#X connect 27 0 97 4;
#X connect 29 0 30 0;
#X connect 34 0 35 0;
#X connect 35 0 10 0;
#X connect 36 0 34 0;
#X connect 36 0 37 0;
#X connect 36 0 39 0;
#X connect 38 0 10 1;
#X connect 39 0 38 0;
#X connect 40 0 110 0;
#X connect 41 0 52 0;
#X connect 42 0 59 0;
#X connect 42 1 44 0;
#X connect 44 0 59 1;
#X connect 45 0 44 1;
#X connect 46 0 60 0;
#X connect 47 0 44 1;
#X connect 48 0 53 0;
#X connect 49 0 48 0;
#X connect 49 1 47 0;
#X connect 49 1 67 0;
#X connect 50 0 51 0;
#X connect 50 0 42 0;
#X connect 52 0 49 0;
#X connect 53 0 54 0;
#X connect 54 0 55 0;
#X connect 54 0 50 0;
#X connect 54 0 73 0;
#X connect 55 0 58 0;
#X connect 56 0 53 1;
#X connect 57 0 61 0;
#X connect 58 0 54 1;
#X connect 58 0 56 0;
#X connect 59 0 43 0;
#X connect 59 0 46 0;
#X connect 60 0 57 0;
#X connect 62 0 63 0;
#X connect 63 0 41 0;
#X connect 64 0 70 0;
#X connect 64 1 65 0;
#X connect 65 0 70 1;
#X connect 66 0 71 0;
#X connect 67 0 65 1;
#X connect 69 0 72 0;
#X connect 70 0 66 0;
#X connect 70 0 74 0;
#X connect 71 0 69 0;
#X connect 73 0 68 0;
#X connect 73 0 64 0;
#X connect 75 0 65 1;
#X connect 76 0 10 2;
#X connect 77 0 79 0;
#X connect 80 0 104 0;
#X connect 81 0 105 0;
#X connect 82 0 106 0;
#X connect 83 0 107 0;
#X connect 84 0 98 1;
#X connect 85 0 98 2;
#X connect 86 0 98 3;
#X connect 87 0 98 4;
#X connect 88 0 130 0;
#X connect 89 0 122 0;
#X connect 90 0 123 0;
#X connect 91 0 98 0;
#X connect 91 0 134 0;
#X connect 93 0 94 0;
#X connect 93 0 92 0;
#X connect 94 0 95 0;
#X connect 95 0 91 0;
#X connect 96 0 95 1;
#X connect 97 0 90 1;
#X connect 97 0 89 1;
#X connect 98 0 133 0;
#X connect 98 1 132 0;
#X connect 100 0 97 0;
#X connect 100 0 151 0;
#X connect 101 0 97 0;
#X connect 101 0 151 0;
#X connect 102 0 97 0;
#X connect 102 0 151 0;
#X connect 103 0 97 0;
#X connect 103 0 151 0;
#X connect 104 0 100 0;
#X connect 105 0 101 0;
#X connect 106 0 102 0;
#X connect 107 0 103 0;
#X connect 108 0 115 0;
#X connect 109 0 114 0;
#X connect 110 0 109 0;
#X connect 111 0 109 0;
#X connect 112 0 111 0;
#X connect 113 0 109 1;
#X connect 114 0 36 0;
#X connect 115 0 112 0;
#X connect 115 1 113 0;
#X connect 116 0 131 0;
#X connect 117 0 98 5;
#X connect 118 0 97 5;
#X connect 119 0 122 1;
#X connect 120 0 123 2;
#X connect 121 0 123 1;
#X connect 122 0 126 0;
#X connect 123 0 127 0;
#X connect 125 0 138 0;
#X connect 126 0 124 0;
#X connect 127 0 124 1;
#X connect 129 0 142 0;
#X connect 130 0 128 0;
#X connect 131 0 128 1;
#X connect 132 0 116 1;
#X connect 133 0 88 1;
#X connect 134 0 88 0;
#X connect 134 0 116 0;
#X connect 135 0 136 0;
#X connect 135 1 136 1;
#X connect 136 0 138 0;
#X connect 137 0 144 0;
#X connect 138 0 126 1;
#X connect 138 0 127 1;
#X connect 139 0 140 0;
#X connect 139 1 140 1;
#X connect 140 0 142 0;
#X connect 141 0 143 0;
#X connect 142 0 130 1;
#X connect 142 0 131 1;
#X connect 143 0 147 0;
#X connect 144 0 149 0;
#X connect 145 0 125 0;
#X connect 146 0 129 0;
#X connect 147 0 148 0;
#X connect 147 1 146 0;
#X connect 148 0 139 0;
#X connect 149 0 150 0;
#X connect 149 1 145 0;
#X connect 150 0 135 0;
#X connect 151 0 89 0;
#X connect 151 0 90 0;
